<?xml version="1.0" encoding="UTF-8" standalone="no"?>
<!-- Created with Inkscape (http://www.inkscape.org/) -->

<svg
   xmlns:ns0="http://www.iki.fi/pav/software/textext/"
   xmlns:dc="http://purl.org/dc/elements/1.1/"
   xmlns:cc="http://creativecommons.org/ns#"
   xmlns:rdf="http://www.w3.org/1999/02/22-rdf-syntax-ns#"
   xmlns:svg="http://www.w3.org/2000/svg"
   xmlns="http://www.w3.org/2000/svg"
   xmlns:xlink="http://www.w3.org/1999/xlink"
   xmlns:sodipodi="http://sodipodi.sourceforge.net/DTD/sodipodi-0.dtd"
   xmlns:inkscape="http://www.inkscape.org/namespaces/inkscape"
   width="744.09448819"
   height="1052.3622047"
   id="svg4035"
   version="1.1"
   inkscape:version="0.48.3.1 r9886"
   sodipodi:docname="ixj.svg"
   inkscape:export-filename="/home/kenny/repos/pelican-ghp/theme/static/images/ixj.png"
   inkscape:export-xdpi="90"
   inkscape:export-ydpi="90">
  <sodipodi:namedview
     id="base"
     pagecolor="#ffffff"
     bordercolor="#666666"
     borderopacity="1.0"
     inkscape:pageopacity="0.0"
     inkscape:pageshadow="2"
     inkscape:zoom="2"
     inkscape:cx="335.66246"
     inkscape:cy="891.45272"
     inkscape:document-units="px"
     inkscape:current-layer="layer1"
     showgrid="false"
     inkscape:window-width="1280"
     inkscape:window-height="744"
     inkscape:window-x="0"
     inkscape:window-y="30"
     inkscape:window-maximized="1" />
  <defs
     id="defs4037">
    <filter
       inkscape:collect="always"
       id="filter5836">
      <feGaussianBlur
         inkscape:collect="always"
         stdDeviation="0.19138481"
         id="feGaussianBlur5838" />
    </filter>
  </defs>
  <metadata
     id="metadata4040">
    <rdf:RDF>
      <cc:Work
         rdf:about="">
        <dc:format>image/svg+xml</dc:format>
        <dc:type
           rdf:resource="http://purl.org/dc/dcmitype/StillImage" />
        <dc:title></dc:title>
      </cc:Work>
    </rdf:RDF>
  </metadata>
  <g
     inkscape:label="Layer 1"
     inkscape:groupmode="layer"
     id="layer1">
    <g
       id="g5500"
       style="fill:#244668;fill-opacity:1;stroke:none;stroke-opacity:1;stroke-width:0.18095876000000000;stroke-miterlimit:4;stroke-dasharray:none"
       transform="matrix(5.5261211,0,0,5.5261211,-993.7357,-617.54148)"
       ns0:preamble=""
       ns0:text="$(i \\times j) \\mbox{lyons}$">
      <defs
         id="defs5502">
        <g
           id="g5504">
          <symbol
             id="textext-ba4c6625-0"
             overflow="visible">
            <path
               id="path5507"
               d=""
               style="stroke:none;" />
          </symbol>
          <symbol
             id="textext-ba4c6625-1"
             overflow="visible">
            <path
               id="path5510"
               d="M 3.296875 2.390625 C 3.296875 2.359375 3.296875 2.34375 3.125 2.171875 C 1.890625 0.921875 1.5625 -0.96875 1.5625 -2.5 C 1.5625 -4.234375 1.9375 -5.96875 3.171875 -7.203125 C 3.296875 -7.328125 3.296875 -7.34375 3.296875 -7.375 C 3.296875 -7.453125 3.265625 -7.484375 3.203125 -7.484375 C 3.09375 -7.484375 2.203125 -6.796875 1.609375 -5.53125 C 1.109375 -4.4375 0.984375 -3.328125 0.984375 -2.5 C 0.984375 -1.71875 1.09375 -0.515625 1.640625 0.625 C 2.25 1.84375 3.09375 2.5 3.203125 2.5 C 3.265625 2.5 3.296875 2.46875 3.296875 2.390625 Z "
               style="stroke:none;" />
          </symbol>
          <symbol
             id="textext-ba4c6625-2"
             overflow="visible">
            <path
               id="path5513"
               d="M 2.875 -2.5 C 2.875 -3.265625 2.765625 -4.46875 2.21875 -5.609375 C 1.625 -6.828125 0.765625 -7.484375 0.671875 -7.484375 C 0.609375 -7.484375 0.5625 -7.4375 0.5625 -7.375 C 0.5625 -7.34375 0.5625 -7.328125 0.75 -7.140625 C 1.734375 -6.15625 2.296875 -4.578125 2.296875 -2.5 C 2.296875 -0.78125 1.9375 0.96875 0.703125 2.21875 C 0.5625 2.34375 0.5625 2.359375 0.5625 2.390625 C 0.5625 2.453125 0.609375 2.5 0.671875 2.5 C 0.765625 2.5 1.671875 1.8125 2.25 0.546875 C 2.765625 -0.546875 2.875 -1.65625 2.875 -2.5 Z "
               style="stroke:none;" />
          </symbol>
          <symbol
             id="textext-ba4c6625-3"
             overflow="visible">
            <path
               id="path5516"
               d="M 1.765625 -6.921875 L 0.328125 -6.8125 L 0.328125 -6.5 C 1.03125 -6.5 1.109375 -6.4375 1.109375 -5.9375 L 1.109375 -0.75 C 1.109375 -0.3125 1 -0.3125 0.328125 -0.3125 L 0.328125 0 C 0.65625 -0.015625 1.1875 -0.03125 1.4375 -0.03125 C 1.6875 -0.03125 2.171875 -0.015625 2.546875 0 L 2.546875 -0.3125 C 1.875 -0.3125 1.765625 -0.3125 1.765625 -0.75 Z "
               style="stroke:none;" />
          </symbol>
          <symbol
             id="textext-ba4c6625-4"
             overflow="visible">
            <path
               id="path5519"
               d="M 4.140625 -3.34375 C 4.390625 -3.984375 4.90625 -3.984375 5.0625 -3.984375 L 5.0625 -4.296875 C 4.828125 -4.28125 4.546875 -4.265625 4.3125 -4.265625 C 4.140625 -4.265625 3.671875 -4.28125 3.453125 -4.296875 L 3.453125 -3.984375 C 3.765625 -3.984375 3.921875 -3.8125 3.921875 -3.5625 C 3.921875 -3.453125 3.90625 -3.4375 3.859375 -3.3125 L 2.84375 -0.875 L 1.75 -3.546875 C 1.703125 -3.65625 1.6875 -3.6875 1.6875 -3.734375 C 1.6875 -3.984375 2.046875 -3.984375 2.25 -3.984375 L 2.25 -4.296875 C 1.984375 -4.28125 1.328125 -4.265625 1.15625 -4.265625 C 0.890625 -4.265625 0.484375 -4.28125 0.1875 -4.296875 L 0.1875 -3.984375 C 0.671875 -3.984375 0.859375 -3.984375 1 -3.640625 L 2.5 0 C 2.4375 0.125 2.296875 0.453125 2.25 0.59375 C 2.03125 1.140625 1.75 1.828125 1.109375 1.828125 C 1.0625 1.828125 0.828125 1.828125 0.640625 1.640625 C 0.953125 1.609375 1.03125 1.390625 1.03125 1.21875 C 1.03125 0.96875 0.84375 0.8125 0.609375 0.8125 C 0.40625 0.8125 0.1875 0.9375 0.1875 1.234375 C 0.1875 1.6875 0.609375 2.046875 1.109375 2.046875 C 1.734375 2.046875 2.140625 1.46875 2.375 0.90625 Z "
               style="stroke:none;" />
          </symbol>
          <symbol
             id="textext-ba4c6625-5"
             overflow="visible">
            <path
               id="path5522"
               d="M 4.6875 -2.140625 C 4.6875 -3.40625 3.703125 -4.46875 2.5 -4.46875 C 1.25 -4.46875 0.28125 -3.375 0.28125 -2.140625 C 0.28125 -0.84375 1.3125 0.109375 2.484375 0.109375 C 3.6875 0.109375 4.6875 -0.875 4.6875 -2.140625 Z M 2.5 -0.140625 C 2.0625 -0.140625 1.625 -0.34375 1.359375 -0.8125 C 1.109375 -1.25 1.109375 -1.859375 1.109375 -2.21875 C 1.109375 -2.609375 1.109375 -3.140625 1.34375 -3.578125 C 1.609375 -4.03125 2.078125 -4.25 2.484375 -4.25 C 2.921875 -4.25 3.34375 -4.03125 3.609375 -3.59375 C 3.875 -3.171875 3.875 -2.59375 3.875 -2.21875 C 3.875 -1.859375 3.875 -1.3125 3.65625 -0.875 C 3.421875 -0.421875 2.984375 -0.140625 2.5 -0.140625 Z "
               style="stroke:none;" />
          </symbol>
          <symbol
             id="textext-ba4c6625-6"
             overflow="visible">
            <path
               id="path5525"
               d="M 1.09375 -3.421875 L 1.09375 -0.75 C 1.09375 -0.3125 0.984375 -0.3125 0.3125 -0.3125 L 0.3125 0 C 0.671875 -0.015625 1.171875 -0.03125 1.453125 -0.03125 C 1.703125 -0.03125 2.21875 -0.015625 2.5625 0 L 2.5625 -0.3125 C 1.890625 -0.3125 1.78125 -0.3125 1.78125 -0.75 L 1.78125 -2.59375 C 1.78125 -3.625 2.5 -4.1875 3.125 -4.1875 C 3.765625 -4.1875 3.875 -3.65625 3.875 -3.078125 L 3.875 -0.75 C 3.875 -0.3125 3.765625 -0.3125 3.09375 -0.3125 L 3.09375 0 C 3.4375 -0.015625 3.953125 -0.03125 4.21875 -0.03125 C 4.46875 -0.03125 5 -0.015625 5.328125 0 L 5.328125 -0.3125 C 4.8125 -0.3125 4.5625 -0.3125 4.5625 -0.609375 L 4.5625 -2.515625 C 4.5625 -3.375 4.5625 -3.671875 4.25 -4.03125 C 4.109375 -4.203125 3.78125 -4.40625 3.203125 -4.40625 C 2.46875 -4.40625 2 -3.984375 1.71875 -3.359375 L 1.71875 -4.40625 L 0.3125 -4.296875 L 0.3125 -3.984375 C 1.015625 -3.984375 1.09375 -3.921875 1.09375 -3.421875 Z "
               style="stroke:none;" />
          </symbol>
          <symbol
             id="textext-ba4c6625-7"
             overflow="visible">
            <path
               id="path5528"
               d="M 2.078125 -1.9375 C 2.296875 -1.890625 3.109375 -1.734375 3.109375 -1.015625 C 3.109375 -0.515625 2.765625 -0.109375 1.984375 -0.109375 C 1.140625 -0.109375 0.78125 -0.671875 0.59375 -1.53125 C 0.5625 -1.65625 0.5625 -1.6875 0.453125 -1.6875 C 0.328125 -1.6875 0.328125 -1.625 0.328125 -1.453125 L 0.328125 -0.125 C 0.328125 0.046875 0.328125 0.109375 0.4375 0.109375 C 0.484375 0.109375 0.5 0.09375 0.6875 -0.09375 C 0.703125 -0.109375 0.703125 -0.125 0.890625 -0.3125 C 1.328125 0.09375 1.78125 0.109375 1.984375 0.109375 C 3.125 0.109375 3.59375 -0.5625 3.59375 -1.28125 C 3.59375 -1.796875 3.296875 -2.109375 3.171875 -2.21875 C 2.84375 -2.546875 2.453125 -2.625 2.03125 -2.703125 C 1.46875 -2.8125 0.8125 -2.9375 0.8125 -3.515625 C 0.8125 -3.875 1.0625 -4.28125 1.921875 -4.28125 C 3.015625 -4.28125 3.078125 -3.375 3.09375 -3.078125 C 3.09375 -2.984375 3.1875 -2.984375 3.203125 -2.984375 C 3.34375 -2.984375 3.34375 -3.03125 3.34375 -3.21875 L 3.34375 -4.234375 C 3.34375 -4.390625 3.34375 -4.46875 3.234375 -4.46875 C 3.1875 -4.46875 3.15625 -4.46875 3.03125 -4.34375 C 3 -4.3125 2.90625 -4.21875 2.859375 -4.1875 C 2.484375 -4.46875 2.078125 -4.46875 1.921875 -4.46875 C 0.703125 -4.46875 0.328125 -3.796875 0.328125 -3.234375 C 0.328125 -2.890625 0.484375 -2.609375 0.75 -2.390625 C 1.078125 -2.140625 1.359375 -2.078125 2.078125 -1.9375 Z "
               style="stroke:none;" />
          </symbol>
          <symbol
             id="textext-ba4c6625-8"
             overflow="visible">
            <path
               id="path5531"
               d=""
               style="stroke:none;" />
          </symbol>
          <symbol
             id="textext-ba4c6625-9"
             overflow="visible">
            <path
               id="path5534"
               d="M 2.828125 -6.234375 C 2.828125 -6.4375 2.6875 -6.59375 2.46875 -6.59375 C 2.1875 -6.59375 1.921875 -6.328125 1.921875 -6.0625 C 1.921875 -5.875 2.0625 -5.703125 2.296875 -5.703125 C 2.53125 -5.703125 2.828125 -5.9375 2.828125 -6.234375 Z M 2.078125 -2.484375 C 2.1875 -2.765625 2.1875 -2.796875 2.296875 -3.0625 C 2.375 -3.265625 2.421875 -3.40625 2.421875 -3.59375 C 2.421875 -4.03125 2.109375 -4.40625 1.609375 -4.40625 C 0.671875 -4.40625 0.296875 -2.953125 0.296875 -2.875 C 0.296875 -2.765625 0.390625 -2.765625 0.40625 -2.765625 C 0.515625 -2.765625 0.515625 -2.796875 0.5625 -2.953125 C 0.84375 -3.890625 1.234375 -4.1875 1.578125 -4.1875 C 1.65625 -4.1875 1.828125 -4.1875 1.828125 -3.875 C 1.828125 -3.65625 1.75 -3.453125 1.71875 -3.34375 C 1.640625 -3.09375 1.1875 -1.9375 1.03125 -1.5 C 0.921875 -1.25 0.796875 -0.921875 0.796875 -0.703125 C 0.796875 -0.234375 1.140625 0.109375 1.609375 0.109375 C 2.546875 0.109375 2.921875 -1.328125 2.921875 -1.421875 C 2.921875 -1.53125 2.828125 -1.53125 2.796875 -1.53125 C 2.703125 -1.53125 2.703125 -1.5 2.65625 -1.34375 C 2.46875 -0.71875 2.140625 -0.109375 1.640625 -0.109375 C 1.46875 -0.109375 1.390625 -0.203125 1.390625 -0.4375 C 1.390625 -0.6875 1.453125 -0.828125 1.6875 -1.4375 Z "
               style="stroke:none;" />
          </symbol>
          <symbol
             id="textext-ba4c6625-10"
             overflow="visible">
            <path
               id="path5537"
               d="M 3.953125 -6.234375 C 3.953125 -6.421875 3.8125 -6.59375 3.578125 -6.59375 C 3.34375 -6.59375 3.046875 -6.359375 3.046875 -6.0625 C 3.046875 -5.859375 3.1875 -5.703125 3.421875 -5.703125 C 3.6875 -5.703125 3.953125 -5.96875 3.953125 -6.234375 Z M 1.953125 0.5 C 1.765625 1.25 1.28125 1.828125 0.734375 1.828125 C 0.671875 1.828125 0.515625 1.828125 0.34375 1.734375 C 0.640625 1.671875 0.78125 1.40625 0.78125 1.203125 C 0.78125 1.046875 0.671875 0.859375 0.40625 0.859375 C 0.15625 0.859375 -0.125 1.0625 -0.125 1.421875 C -0.125 1.828125 0.265625 2.046875 0.75 2.046875 C 1.453125 2.046875 2.375 1.515625 2.625 0.53125 L 3.53125 -3.125 C 3.59375 -3.3125 3.59375 -3.453125 3.59375 -3.484375 C 3.59375 -4.0625 3.171875 -4.40625 2.671875 -4.40625 C 1.65625 -4.40625 1.09375 -2.953125 1.09375 -2.875 C 1.09375 -2.765625 1.1875 -2.765625 1.203125 -2.765625 C 1.296875 -2.765625 1.3125 -2.78125 1.390625 -2.96875 C 1.640625 -3.578125 2.09375 -4.1875 2.640625 -4.1875 C 2.78125 -4.1875 2.953125 -4.140625 2.953125 -3.734375 C 2.953125 -3.5 2.9375 -3.390625 2.890625 -3.21875 Z "
               style="stroke:none;" />
          </symbol>
          <symbol
             id="textext-ba4c6625-11"
             overflow="visible">
            <path
               id="path5540"
               d=""
               style="stroke:none;" />
          </symbol>
          <symbol
             id="textext-ba4c6625-12"
             overflow="visible">
            <path
               id="path5543"
               d="M 3.875 -2.765625 L 1.890625 -4.75 C 1.765625 -4.875 1.75 -4.890625 1.671875 -4.890625 C 1.5625 -4.890625 1.46875 -4.8125 1.46875 -4.6875 C 1.46875 -4.625 1.484375 -4.609375 1.59375 -4.5 L 3.59375 -2.5 L 1.59375 -0.484375 C 1.484375 -0.375 1.46875 -0.359375 1.46875 -0.296875 C 1.46875 -0.171875 1.5625 -0.09375 1.671875 -0.09375 C 1.75 -0.09375 1.765625 -0.109375 1.890625 -0.234375 L 3.875 -2.21875 L 5.9375 -0.15625 C 5.953125 -0.140625 6.015625 -0.09375 6.078125 -0.09375 C 6.203125 -0.09375 6.28125 -0.171875 6.28125 -0.296875 C 6.28125 -0.3125 6.28125 -0.34375 6.25 -0.40625 C 6.234375 -0.421875 4.65625 -1.984375 4.15625 -2.5 L 5.984375 -4.3125 C 6.03125 -4.375 6.1875 -4.5 6.234375 -4.5625 C 6.234375 -4.578125 6.28125 -4.625 6.28125 -4.6875 C 6.28125 -4.8125 6.203125 -4.890625 6.078125 -4.890625 C 6 -4.890625 5.96875 -4.859375 5.859375 -4.75 Z "
               style="stroke:none;" />
          </symbol>
        </g>
      </defs>
      <g
         id="textext-ba4c6625-13"
         style="fill:#244668;fill-opacity:1;stroke:none;stroke-opacity:1">
        <g
           id="g5546"
           style="fill:#244668;fill-opacity:1;stroke:none;stroke-opacity:1">
          <use
             id="use5548"
             y="134.765"
             x="223.432"
             xlink:href="#textext-ba4c6625-1"
             style="fill:#244668;fill-opacity:1;stroke:none;stroke-opacity:1" />
        </g>
        <g
           id="g5550"
           style="fill:#244668;fill-opacity:1;stroke:none;stroke-opacity:1">
          <use
             id="use5552"
             y="134.765"
             x="227.306"
             xlink:href="#textext-ba4c6625-9"
             style="fill:#244668;fill-opacity:1;stroke:none;stroke-opacity:1" />
        </g>
        <g
           id="g5554"
           style="fill:#244668;fill-opacity:1;stroke:none;stroke-opacity:1">
          <use
             id="use5556"
             y="134.765"
             x="232.953"
             xlink:href="#textext-ba4c6625-12"
             style="fill:#244668;fill-opacity:1;stroke:none;stroke-opacity:1" />
        </g>
        <g
           id="g5558"
           style="fill:#244668;fill-opacity:1;stroke:none;stroke-opacity:1">
          <use
             id="use5560"
             y="134.765"
             x="242.915"
             xlink:href="#textext-ba4c6625-10"
             style="fill:#244668;fill-opacity:1;stroke:none;stroke-opacity:1" />
        </g>
        <g
           id="g5562"
           style="fill:#244668;fill-opacity:1;stroke:none;stroke-opacity:1">
          <use
             id="use5564"
             y="134.765"
             x="247.588"
             xlink:href="#textext-ba4c6625-2"
             style="fill:#244668;fill-opacity:1;stroke:none;stroke-opacity:1" />
          <use
             id="use5566"
             y="134.765"
             x="251.462455"
             xlink:href="#textext-ba4c6625-3"
             style="fill:#244668;fill-opacity:1;stroke:none;stroke-opacity:1" />
          <use
             id="use5568"
             y="134.765"
             x="254.230065"
             xlink:href="#textext-ba4c6625-4"
             style="fill:#244668;fill-opacity:1;stroke:none;stroke-opacity:1" />
        </g>
        <g
           id="g5570"
           style="fill:#244668;fill-opacity:1;stroke:none;stroke-opacity:1">
          <use
             id="use5572"
             y="134.765"
             x="259.209373"
             xlink:href="#textext-ba4c6625-5"
             style="fill:#244668;fill-opacity:1;stroke:none;stroke-opacity:1" />
          <use
             id="use5574"
             y="134.765"
             x="264.190673"
             xlink:href="#textext-ba4c6625-6"
             style="fill:#244668;fill-opacity:1;stroke:none;stroke-opacity:1" />
          <use
             id="use5576"
             y="134.765"
             x="269.725893"
             xlink:href="#textext-ba4c6625-7"
             style="fill:#244668;fill-opacity:1;stroke:none;stroke-opacity:1" />
        </g>
      </g>
    </g>
  </g>
</svg>
